<?xml version="1.0" encoding="UTF-8"?>
<!DOCTYPE svg PUBLIC "-//W3C//DTD SVG 1.1//EN" "http://www.w3.org/Graphics/SVG/1.1/DTD/svg11.dtd">
<!-- Creator: CorelDRAW X5 -->
<svg xmlns="http://www.w3.org/2000/svg" xml:space="preserve" width="50.7998mm" height="24.4296mm" style="shape-rendering:geometricPrecision; text-rendering:geometricPrecision; image-rendering:optimizeQuality; fill-rule:evenodd; clip-rule:evenodd"
viewBox="0 0 5080 2443"
 xmlns:xlink="http://www.w3.org/1999/xlink"
 xmlns:svg="http://www.w3.org/2000/svg">
 <defs>
  <style type="text/css">
   <![CDATA[
    .fil1 {fill:#332C2B;fill-rule:nonzero}
    .fil0 {fill:#E8303A;fill-rule:nonzero}
   ]]>
  </style>
 </defs>
 <g id="Layer_x0020_1">
  <metadata id="CorelCorpID_0Corel-Layer"/>
 </g>
 <g id="svg2">
  <metadata id="CorelCorpID_1Corel-Layer"/>
  <polygon class="fil0" points="1692,53 1614,53 1614,0 1831,0 1831,53 1753,53 1753,274 1692,274 "/>
  <polygon class="fil0" points="1900,0 1960,0 1960,102 2077,102 2077,0 2138,0 2138,274 2077,274 2077,155 1960,155 1960,274 1900,274 "/>
  <path class="fil0" d="M1558 1283c-320,0 -580,260 -580,580 0,320 260,580 580,580 320,0 580,-260 580,-580 0,-320 -260,-580 -580,-580zm0 773l0 0c-107,0 -193,-87 -193,-193 0,-107 87,-193 193,-193 107,0 194,87 194,193 0,107 -87,193 -194,193z"/>
  <polygon class="fil0" points="1098,387 755,1659 280,1933 624,660 "/>
  <polygon class="fil0" points="0,0 1202,0 1098,387 181,387 "/>
  <polygon class="fil0" points="1229,1386 1498,387 1825,660 1703,1112 "/>
  <polygon class="fil0" points="2518,695 2518,656 2563,656 2563,457 2518,457 2518,417 2651,417 2651,457 2606,457 2606,656 2651,656 2651,695 "/>
  <path class="fil0" d="M2728 695l0 -278 38 0 162 216c-2,-16 -4,-35 -5,-56 -1,-21 -1,-44 -1,-69l0 -91 43 0 0 278 -39 0 -162 -212c2,23 3,41 4,53 1,13 2,22 2,28 0,6 0,11 0,15l0 115 -43 0z"/>
  <path class="fil0" d="M3053 695l0 -278 109 0c26,0 49,6 69,17 19,12 35,28 45,49 11,21 16,45 16,73 0,28 -5,52 -16,73 -11,21 -26,37 -45,49 -19,12 -43,17 -69,17l-109 0zm107 -237l0 0 -64 0 0 195 64 0c28,0 50,-9 65,-26 15,-17 23,-41 23,-72 0,-30 -8,-54 -23,-71 -16,-17 -37,-26 -65,-26z"/>
  <path class="fil0" d="M3476 699c-20,0 -38,-4 -54,-11 -17,-7 -31,-17 -43,-30 -12,-13 -22,-28 -29,-45 -7,-17 -10,-36 -10,-57 0,-21 3,-40 10,-57 7,-17 16,-32 29,-45 12,-13 27,-23 43,-30 17,-7 35,-11 54,-11 20,0 38,4 54,11 17,7 31,17 43,30 12,13 22,28 29,45 7,17 10,36 10,57 0,20 -3,39 -10,57 -7,17 -16,32 -29,45 -12,13 -27,23 -43,30 -17,7 -35,11 -54,11zm0 -42l0 0c18,0 34,-4 48,-13 14,-9 25,-21 33,-36 8,-15 12,-33 12,-52 0,-19 -4,-37 -12,-52 -8,-15 -19,-27 -33,-36 -14,-9 -30,-13 -48,-13 -18,0 -34,4 -48,13 -14,9 -25,21 -33,36 -8,15 -12,33 -12,52 0,20 4,37 12,52 8,15 19,27 33,36 14,9 30,13 48,13z"/>
  <path class="fil0" d="M3680 695l0 -278 39 0 162 216c-2,-16 -4,-35 -5,-56 -1,-21 -1,-44 -1,-69l0 -91 43 0 0 278 -39 0 -162 -212c2,23 3,41 4,53 1,13 2,22 2,28 0,6 0,11 0,15l0 115 -43 0z"/>
  <polygon class="fil0" points="4005,695 4005,417 4180,417 4180,459 4048,459 4048,532 4158,532 4158,574 4048,574 4048,654 4180,654 4180,695 "/>
  <path class="fil0" d="M4344 699c-45,0 -80,-18 -105,-54l29 -34c13,19 25,31 37,39 12,7 26,11 42,11 15,0 28,-3 38,-10 10,-7 16,-16 16,-27 0,-12 -5,-22 -15,-30 -10,-8 -27,-14 -49,-18 -57,-11 -85,-39 -85,-85 0,-15 4,-28 13,-40 8,-12 20,-21 34,-28 14,-7 31,-10 49,-10 44,0 75,16 94,49l-30 30c-8,-13 -17,-23 -28,-30 -11,-7 -23,-10 -37,-10 -15,0 -28,4 -37,11 -10,7 -14,16 -14,28 0,11 4,21 13,28 9,7 23,13 44,17 29,6 52,16 68,29 16,14 24,30 24,49 0,26 -9,48 -27,63 -18,16 -43,23 -74,23z"/>
  <polygon class="fil0" points="4506,695 4506,656 4551,656 4551,457 4506,457 4506,417 4638,417 4638,457 4593,457 4593,656 4638,656 4638,695 "/>
  <path class="fil0" d="M4687 695l108 -278 44 0 107 278 -46 0 -26 -69 -116 0 -26 69 -44 0zm107 -166l0 0 -21 56 85 0 -22 -57c-1,-2 -2,-6 -5,-14 -2,-7 -5,-16 -8,-25 -3,-9 -6,-17 -8,-24 -2,7 -4,14 -7,23 -3,8 -5,16 -8,23 -3,7 -5,13 -7,18z"/>
  <polygon class="fil0" points="2596,1139 2596,903 2518,903 2518,861 2719,861 2719,903 2639,903 2639,1139 "/>
  <path class="fil0" d="M2733 1139l108 -278 44 0 107 278 -46 0 -26 -69 -116 0 -26 69 -44 0zm107 -166l0 0 -21 56 85 0 -22 -57c-1,-2 -2,-6 -5,-14 -2,-7 -5,-16 -8,-25 -3,-9 -6,-17 -8,-24 -2,7 -5,14 -7,23 -3,8 -5,16 -8,23 -3,7 -5,13 -7,18z"/>
  <path class="fil0" d="M3050 1139l0 -278 39 0 162 216c-2,-16 -4,-35 -5,-56 -1,-21 -1,-44 -1,-69l0 -91 43 0 0 278 -39 0 -162 -212c2,23 3,41 4,53 1,13 2,22 2,28 0,6 0,11 0,15l0 116 -43 0z"/>
  <path class="fil0" d="M3499 1143c-20,0 -39,-4 -56,-11 -17,-7 -33,-17 -46,-30 -13,-13 -24,-28 -31,-45 -7,-17 -11,-36 -11,-56 0,-20 4,-38 11,-56 7,-17 17,-32 31,-45 13,-13 28,-23 46,-30 17,-7 36,-11 56,-11 14,0 28,2 41,6 13,4 25,10 36,17 11,7 20,15 27,25l-28 29c-24,-23 -49,-35 -76,-35 -19,0 -36,4 -51,13 -15,9 -27,21 -36,36 -9,15 -13,32 -13,51 0,14 3,27 8,39 5,12 13,23 22,32 9,9 20,17 33,22 12,5 25,8 39,8 14,0 27,-3 38,-8 12,-5 21,-12 28,-22 7,-9 11,-19 11,-30l0 -2 -79 0 0 -42 123 0c1,4 1,9 2,12 0,4 0,8 0,11 0,24 -6,46 -16,64 -11,18 -26,33 -45,43 -19,10 -40,16 -63,16z"/>
  <path class="fil0" d="M3813 1143c-20,0 -39,-4 -56,-11 -17,-7 -33,-17 -46,-30 -13,-13 -24,-28 -31,-45 -7,-17 -11,-36 -11,-56 0,-20 4,-38 11,-56 7,-17 17,-32 31,-45 13,-13 28,-23 46,-30 17,-7 36,-11 56,-11 14,0 28,2 41,6 13,4 25,10 36,17 11,7 20,15 27,25l-28 29c-24,-23 -49,-35 -76,-35 -19,0 -36,4 -51,13 -15,9 -27,21 -36,36 -9,15 -13,32 -13,51 0,14 3,27 8,39 5,12 13,23 22,32 9,9 20,17 33,22 12,5 25,8 39,8 14,0 27,-3 38,-8 12,-5 21,-12 28,-22 7,-9 10,-19 10,-30l0 -2 -79 0 0 -42 123 0c1,4 1,9 2,12 0,4 0,8 0,11 0,24 -5,46 -16,64 -11,18 -26,33 -45,43 -19,10 -40,16 -63,16z"/>
  <path class="fil0" d="M4110 1142c-21,0 -41,-5 -58,-14 -17,-9 -30,-22 -40,-39 -10,-17 -14,-35 -14,-56l0 -171 43 0 0 168c0,14 3,26 10,36 6,11 15,19 25,26 10,6 22,10 34,10 13,0 25,-3 36,-10 11,-6 19,-15 26,-26 6,-11 10,-23 10,-36l0 -168 41 0 0 171c0,21 -5,40 -14,56 -10,17 -23,30 -40,39 -17,9 -36,14 -58,14z"/>
  <polygon class="fil0" points="4306,1139 4306,861 4349,861 4349,980 4487,980 4487,861 4530,861 4530,1139 4487,1139 4487,1021 4349,1021 4349,1139 "/>
  <polygon class="fil1" points="2518,1583 2518,1524 2566,1524 2566,1365 2518,1365 2518,1305 2685,1305 2685,1365 2637,1365 2637,1524 2685,1524 2685,1583 "/>
  <path class="fil1" d="M2758 1583l0 -278 64 0 125 171c-1,-12 -2,-23 -3,-33 -1,-10 -2,-21 -2,-33 0,-12 0,-25 0,-41l0 -65 69 0 0 278 -65 0 -123 -167c1,12 2,21 3,29 1,8 1,16 1,23 0,7 0,16 0,26l0 89 -69 0z"/>
  <path class="fil1" d="M3089 1583l0 -278 118 0c27,0 51,6 72,18 21,12 37,28 49,49 12,21 18,45 18,72 0,27 -6,51 -18,72 -12,21 -28,37 -49,49 -21,12 -45,18 -72,18l-118 0zm116 -216l0 0 -44 0 0 153 44 0c21,0 37,-7 50,-21 13,-14 19,-33 19,-55 0,-23 -6,-41 -19,-55 -13,-14 -29,-21 -50,-21z"/>
  <path class="fil1" d="M3535 1587c-21,0 -40,-4 -58,-11 -18,-7 -33,-17 -46,-30 -13,-13 -23,-28 -30,-46 -7,-17 -11,-37 -11,-58 0,-21 4,-40 11,-58 7,-18 17,-33 30,-46 13,-13 28,-23 46,-30 18,-7 37,-11 58,-11 21,0 41,4 58,11 18,7 33,17 46,30 13,13 23,28 30,46 7,18 11,37 11,58 0,21 -4,40 -11,57 -7,18 -17,33 -30,46 -13,13 -28,23 -46,30 -18,7 -37,11 -58,11zm0 -67l0 0c14,0 26,-3 37,-10 11,-7 19,-16 26,-28 6,-12 10,-25 10,-40 0,-15 -3,-28 -10,-40 -6,-12 -15,-21 -26,-27 -11,-7 -23,-10 -37,-10 -14,0 -26,3 -37,10 -11,7 -19,16 -26,27 -6,12 -9,25 -9,40 0,15 3,28 9,40 6,12 15,21 26,28 11,7 23,10 37,10z"/>
  <path class="fil1" d="M3741 1583l0 -278 64 0 125 171c-1,-12 -2,-23 -3,-33 -1,-10 -2,-21 -2,-33 0,-12 0,-25 0,-41l0 -65 69 0 0 278 -65 0 -123 -167c1,12 2,21 3,29 1,8 1,16 1,23 0,7 0,16 0,26l0 89 -69 0z"/>
  <polygon class="fil1" points="4072,1583 4072,1305 4269,1305 4269,1365 4141,1365 4141,1413 4252,1413 4252,1470 4141,1470 4141,1523 4274,1523 4274,1583 "/>
  <path class="fil1" d="M4433 1587c-29,0 -53,-5 -72,-15 -19,-10 -36,-23 -50,-41l43 -48c13,17 27,29 40,35 14,6 27,9 41,9 10,0 19,-2 25,-6 7,-4 10,-9 10,-17 0,-6 -3,-12 -8,-16 -5,-4 -12,-8 -20,-10 -8,-3 -17,-5 -25,-7 -31,-7 -54,-17 -69,-31 -15,-14 -23,-33 -23,-57 0,-17 5,-32 15,-45 10,-13 23,-23 39,-30 16,-7 33,-11 52,-11 28,0 50,4 67,13 16,9 30,20 40,35l-43 42c-8,-10 -18,-17 -28,-22 -10,-5 -21,-7 -32,-7 -11,0 -20,2 -27,6 -7,4 -10,9 -10,16 0,6 2,10 7,14 5,4 11,7 18,9 7,2 15,4 22,6 19,4 36,9 51,16 15,7 26,16 34,28 8,12 12,26 12,43 0,20 -5,36 -14,50 -10,13 -23,24 -39,31 -17,7 -35,11 -57,11z"/>
  <polygon class="fil1" points="4597,1583 4597,1524 4645,1524 4645,1365 4597,1365 4597,1305 4764,1305 4764,1365 4716,1365 4716,1524 4764,1524 4764,1583 "/>
  <path class="fil1" d="M4801 1583l110 -278 60 0 109 278 -72 0 -19 -50 -100 0 -19 50 -70 0zm121 -136l0 0 -12 33 61 0 -13 -34c-3,-9 -6,-17 -9,-26 -3,-9 -6,-18 -9,-27 -3,9 -5,17 -8,26 -3,8 -6,18 -10,27z"/>
  <polygon class="fil1" points="2601,2027 2601,1811 2518,1811 2518,1749 2758,1749 2758,1811 2673,1811 2673,2027 "/>
  <path class="fil1" d="M2933 2029c-23,0 -44,-5 -62,-14 -18,-9 -32,-22 -42,-39 -10,-16 -15,-35 -15,-56l0 -171 72 0 0 168c0,15 5,27 14,36 9,10 21,14 34,14 14,0 26,-5 35,-14 10,-10 14,-22 14,-36l0 -168 70 0 0 171c0,21 -5,40 -15,56 -10,16 -25,29 -43,39 -18,9 -39,14 -62,14z"/>
  <path class="fil1" d="M3130 2027l0 -278 63 0 78 127 79 -127 61 0 0 278 -69 0 0 -82c0,-15 0,-29 1,-42 1,-13 1,-25 2,-37l-62 96 -26 0 -60 -94c1,11 2,23 2,36 0,13 1,27 1,42l0 82 -69 0z"/>
  <path class="fil1" d="M3489 2027l0 -278 124 0c29,0 51,6 67,18 15,12 23,29 23,50 0,29 -11,48 -34,58 15,6 27,14 36,26 9,12 13,25 13,41 0,19 -4,34 -13,47 -9,13 -21,22 -36,28 -15,6 -33,9 -52,9l-128 0zm67 -167l0 0 46 0c10,0 18,-2 23,-7 5,-5 8,-11 8,-19 0,-8 -3,-15 -8,-19 -5,-5 -14,-7 -25,-7l-44 0 0 52zm0 108l0 0 58 0c10,0 18,-3 24,-8 6,-5 9,-12 9,-22 0,-8 -3,-15 -9,-20 -6,-5 -15,-7 -25,-7l-56 0 0 56z"/>
  <path class="fil1" d="M3897 2029c-23,0 -44,-5 -62,-14 -18,-9 -32,-22 -42,-39 -10,-16 -15,-35 -15,-56l0 -171 72 0 0 168c0,15 5,27 14,36 9,10 21,14 34,14 14,0 26,-5 35,-14 10,-10 14,-22 14,-36l0 -168 70 0 0 171c0,21 -5,40 -15,56 -10,16 -25,29 -43,39 -18,9 -39,14 -62,14z"/>
  <polygon class="fil1" points="4094,2027 4094,1749 4165,1749 4165,1857 4264,1857 4264,1749 4336,1749 4336,2027 4264,2027 4264,1920 4165,1920 4165,2027 "/>
 </g>
</svg>
