<?xml version="1.0" encoding="UTF-8" standalone="no"?>
<svg
   width="7.9375mm"
   height="7.9375mm"
   viewBox="0 0 7.9375 7.9375"
   version="1.1"
   id="svg8"
   inkscape:version="1.1 (c68e22c387, 2021-05-23)"
   sodipodi:docname="MZS.svg"
   xmlns:inkscape="http://www.inkscape.org/namespaces/inkscape"
   xmlns:sodipodi="http://sodipodi.sourceforge.net/DTD/sodipodi-0.dtd"
   xmlns="http://www.w3.org/2000/svg"
   xmlns:svg="http://www.w3.org/2000/svg"
   xmlns:rdf="http://www.w3.org/1999/02/22-rdf-syntax-ns#"
   xmlns:cc="http://creativecommons.org/ns#"
   xmlns:dc="http://purl.org/dc/elements/1.1/">
  <defs
     id="defs2" />
  <sodipodi:namedview
     id="base"
     pagecolor="#ffffff"
     bordercolor="#666666"
     borderopacity="1.0"
     inkscape:pageopacity="0.0"
     inkscape:pageshadow="2"
     inkscape:zoom="23.533333"
     inkscape:cx="15"
     inkscape:cy="15"
     inkscape:document-units="mm"
     inkscape:current-layer="layer1"
     inkscape:document-rotation="0"
     showgrid="false"
     showguides="true"
     inkscape:guide-bbox="true"
     inkscape:snap-bbox="true"
     inkscape:bbox-paths="true"
     inkscape:bbox-nodes="true"
     inkscape:snap-bbox-edge-midpoints="true"
     inkscape:snap-bbox-midpoints="true"
     inkscape:object-paths="true"
     inkscape:snap-intersection-paths="true"
     inkscape:snap-smooth-nodes="true"
     inkscape:snap-midpoints="true"
     inkscape:snap-center="true"
     inkscape:snap-text-baseline="true"
     inkscape:snap-object-midpoints="true"
     inkscape:window-width="1920"
     inkscape:window-height="986"
     inkscape:window-x="-11"
     inkscape:window-y="-11"
     inkscape:window-maximized="1"
     inkscape:pagecheckerboard="0" />
  <metadata
     id="metadata5">
    <rdf:RDF>
      <cc:Work
         rdf:about="">
        <dc:format>image/svg+xml</dc:format>
        <dc:type
           rdf:resource="http://purl.org/dc/dcmitype/StillImage" />
      </cc:Work>
    </rdf:RDF>
  </metadata>
  <g
     inkscape:label="Layer 1"
     inkscape:groupmode="layer"
     id="layer1"
     transform="translate(-1024.1739,-85.044626)">
    <g
       id="g846"
       transform="matrix(0.5,0,0,0.5,1194.1864,203.7856)"
       style="stroke-width:2"
       inkscape:export-filename="D:\Project Computer\Project Coding Zakwan\BELAJAR WEB PROGRAMING\PORTFOLIO\img\MZS.png"
       inkscape:export-xdpi="96"
       inkscape:export-ydpi="96">
      <circle
         style="fill:#000000;stroke:none;stroke-width:1.05833;stroke-linecap:round;stroke-linejoin:round;stroke-miterlimit:4;stroke-dasharray:none"
         id="circle842"
         cx="-332.08743"
         cy="-229.54445"
         r="7.9375" />
      <path
         id="path844"
         style="color:#000000;font-style:normal;font-variant:normal;font-weight:normal;font-stretch:normal;font-size:medium;line-height:normal;font-family:sans-serif;font-variant-ligatures:normal;font-variant-position:normal;font-variant-caps:normal;font-variant-numeric:normal;font-variant-alternates:normal;font-variant-east-asian:normal;font-feature-settings:normal;font-variation-settings:normal;text-indent:0;text-align:start;text-decoration:none;text-decoration-line:none;text-decoration-style:solid;text-decoration-color:#000000;letter-spacing:normal;word-spacing:normal;text-transform:none;writing-mode:lr-tb;direction:ltr;text-orientation:mixed;dominant-baseline:auto;baseline-shift:baseline;text-anchor:start;white-space:normal;shape-padding:0;shape-margin:0;inline-size:0;clip-rule:nonzero;display:inline;overflow:visible;visibility:visible;opacity:1;isolation:auto;mix-blend-mode:normal;color-interpolation:sRGB;color-interpolation-filters:linearRGB;solid-color:#000000;solid-opacity:1;vector-effect:none;fill:#ffffff;fill-opacity:1;fill-rule:nonzero;stroke:none;stroke-width:2;stroke-linecap:round;stroke-linejoin:round;stroke-miterlimit:4;stroke-dasharray:none;stroke-dashoffset:0;stroke-opacity:1;color-rendering:auto;image-rendering:auto;shape-rendering:auto;text-rendering:auto;enable-background:accumulate;stop-color:#000000;stop-opacity:1"
         d="m -337.35996,-232.79148 c -0.0119,-1.4e-4 -0.0239,5.3e-4 -0.0357,0.002 -0.13453,0.0145 -0.2364,0.12824 -0.23616,0.26355 v 3.45893 h 0.52917 v -2.49 l 1.1405,1.9296 c 0.10249,0.17292 0.35277,0.17292 0.45526,0 l 1.14257,-1.93167 v 2.49207 h 0.52917 v -3.45893 c -5.2e-4,-0.26857 -0.35455,-0.36563 -0.49196,-0.13488 l -1.40664,2.37918 -1.40611,-2.37918 c -0.0461,-0.0783 -0.12926,-0.12752 -0.22014,-0.13022 z m 9.31932,1.01986 c -0.37498,0.01 -0.75063,0.0893 -1.09708,0.24029 -0.92388,0.40274 -1.43136,1.29334 -1.13275,2.13476 0.2986,0.84142 1.2484,1.36322 2.29857,1.36322 0.68728,0 1.31336,0.28456 1.62884,0.69711 0.31547,0.41257 0.31547,0.86902 0,1.28158 -0.31548,0.41257 -0.94156,0.69711 -1.62884,0.69711 -6.7e-4,6.6e-4 -10e-4,0.001 -0.002,0.002 -0.008,-0.001 -0.0158,-0.002 -0.0238,-0.002 h -5.45134 l 3.24063,-3.16001 c 0.16871,-0.16604 0.0512,-0.45312 -0.18552,-0.4532 h -7.92613 c -0.14532,5.7e-4 -0.26298,0.11823 -0.26355,0.26355 -5.7e-4,0.14612 0.11743,0.26504 0.26355,0.26561 h 7.27345 l -3.23804,3.16002 c -0.16801,0.16534 -0.0523,0.45128 0.18345,0.4532 h 6.1035 c 0.008,4e-5 0.0162,-2.9e-4 0.0243,-10e-4 l 0.001,10e-4 c 0.82938,0 1.6061,-0.32517 2.04897,-0.90433 0.44286,-0.57917 0.44286,-1.34631 0,-1.92547 -0.43804,-0.57285 -1.20293,-0.89578 -2.0221,-0.90279 -0.009,-0.001 -0.0179,-0.002 -0.0269,-0.002 -0.87126,0 -1.60172,-0.45193 -1.80041,-1.01182 -0.1987,-0.55989 0.1053,-1.15015 0.84542,-1.47278 0.74013,-0.32264 1.70863,-0.21947 2.29702,0.22479 0.11695,0.0881 0.28326,0.0645 0.37104,-0.0527 0.0871,-0.11668 0.0635,-0.28181 -0.0527,-0.36949 -0.38513,-0.29079 -0.86039,-0.4645 -1.35547,-0.51366 -0.12377,-0.0123 -0.24863,-0.0166 -0.37363,-0.0134 z m -9.59083,3.42464 v 0.90126 c 0.008,0.34514 0.52161,0.34514 0.52917,0 v -0.90125 z m 3.27284,0.008 v 0.8997 c 0.008,0.34484 0.52131,0.34484 0.52916,0 v -0.89972 z"
         sodipodi:nodetypes="ccccccccccccccccccccscscccccccsccccccccscccscccccccccccccccc" />
    </g>
  </g>
</svg>
