<?xml version="1.0" encoding="UTF-8" standalone="no"?>
<!-- Created with Inkscape (http://www.inkscape.org/) -->

<svg
   width="198.4375mm"
   height="198.4375mm"
   viewBox="0 0 198.4375 198.4375"
   version="1.1"
   id="svg5"
   inkscape:version="1.1 (c68e22c387, 2021-05-23)"
   sodipodi:docname="zakwan.svg"
   xmlns:inkscape="http://www.inkscape.org/namespaces/inkscape"
   xmlns:sodipodi="http://sodipodi.sourceforge.net/DTD/sodipodi-0.dtd"
   xmlns="http://www.w3.org/2000/svg"
   xmlns:svg="http://www.w3.org/2000/svg">
  <sodipodi:namedview
     id="namedview7"
     pagecolor="#ffffff"
     bordercolor="#666666"
     borderopacity="1.0"
     inkscape:pageshadow="2"
     inkscape:pageopacity="0.0"
     inkscape:pagecheckerboard="0"
     inkscape:document-units="mm"
     showgrid="false"
     inkscape:snap-bbox="true"
     inkscape:bbox-paths="true"
     inkscape:bbox-nodes="true"
     inkscape:snap-bbox-midpoints="true"
     inkscape:snap-bbox-edge-midpoints="true"
     inkscape:object-paths="true"
     inkscape:snap-intersection-paths="true"
     inkscape:snap-smooth-nodes="true"
     inkscape:snap-midpoints="true"
     inkscape:snap-object-midpoints="true"
     inkscape:snap-center="true"
     inkscape:snap-text-baseline="true"
     inkscape:snap-page="true"
     inkscape:zoom="0.64"
     inkscape:cx="536.71875"
     inkscape:cy="379.6875"
     inkscape:window-width="1920"
     inkscape:window-height="986"
     inkscape:window-x="-11"
     inkscape:window-y="-11"
     inkscape:window-maximized="1"
     inkscape:current-layer="layer1"
     inkscape:snap-global="true" />
  <defs
     id="defs2" />
  <g
     inkscape:label="Layer 1"
     inkscape:groupmode="layer"
     id="layer1"
     transform="translate(-20.381086,-43.138496)">
    <rect
       style="fill:#00ffff;stroke-width:2.64583;stroke-linecap:round;stroke-linejoin:round"
       id="rect854"
       width="198.4375"
       height="198.4375"
       x="20.381086"
       y="43.138496" />
    <g
       id="g933"
       transform="matrix(1.046507,0,0,1.046507,-10.465907,-8.2726595)"
       style="stroke-width:0.95556">
      <path
         id="path948"
         style="fill:#9f8473;fill-opacity:1;stroke:none;stroke-width:0.252825px;stroke-linecap:butt;stroke-linejoin:miter;stroke-opacity:1"
         d="m 118.81074,75.385786 c -5.99447,-0.10336 -20.25716,8.68164 -29.45557,19.32699 -9.1984,10.645344 -3.61735,36.896974 -3.61735,36.896974 -4.80591,-0.98186 -6.51123,-2.37712 -7.18302,2.17041 -0.6718,4.54752 12.29899,19.9471 12.29899,19.9471 1.29191,8.57828 9.8702,18.21595 10.15442,18.57768 0.28423,0.36174 0.18087,5.03845 0.18087,5.03845 h -4.18579 c -1.65364,0 -5.58106,5.83944 -7.64812,7.90649 -2.06706,2.06706 -14.05598,5.58107 -23.82283,8.78499 -9.76684,3.20395 -13.17749,9.04338 -14.00431,11.52385 -0.70495,2.11487 -9.88509,25.39992 -12.95684,33.18661 H 210 c -3.62246,-8.84267 -11.53041,-27.38475 -16.21295,-32.61818 -6.21194,-6.94275 -38.95784,-18.29345 -39.2679,-18.91355 -0.31006,-0.62014 -0.77514,-1.08522 -0.77514,-1.08522 0,0 -3.61735,-0.77512 -5.42603,-5.52937 -1.80867,-4.75424 -7.58817,-2.20607 -7.58817,-2.20607 l 0.65785,-6.97942 c 4.89646,-3.28867 8.69662,-16.58968 8.69662,-16.58968 3.9464,-1.82703 6.10219,-4.67691 12.09487,-15.45643 5.99268,-10.77953 -2.85409,-8.662 -4.53357,-8.09356 -1.67946,0.56844 -1.73116,-0.59428 -1.73116,-0.59428 7.2347,-22.22087 -1.65365,-35.346684 -12.09229,-45.475264 -10.43864,-10.12858 -19.01693,-9.71517 -25.01139,-9.81852 z"
         inkscape:export-filename="D:\Project Computer\Project Coding Zakwan\BELAJAR WEB PROGRAMING\PORTFOLIO\img\zakwan.png"
         inkscape:export-xdpi="96"
         inkscape:export-ydpi="96" />
      <path
         id="path1056"
         style="fill:#937765;fill-opacity:1;stroke:none;stroke-width:0.252825px;stroke-linecap:butt;stroke-linejoin:miter;stroke-opacity:1"
         d="m 95.8365,162.77705 c 0.1923,0.32462 0.38373,0.65195 0.57878,0.96532 0.29284,0.47043 0.58735,0.92752 0.88006,1.36839 0.29271,0.44086 0.58372,0.86551 0.86868,1.27175 0.28495,0.40625 0.56393,0.79408 0.83354,1.16066 0.0463,0.063 0.0809,0.10363 0.1266,0.16536 l 54.83377,34.76445 6.92427,-12.61197 c -0.69712,-0.27445 -1.51839,-0.60174 -2.13942,-0.84542 -1.60528,-0.62992 -2.93438,-1.15099 -3.87159,-1.53429 -0.46861,-0.19164 -0.83921,-0.34878 -1.0976,-0.46766 -0.1292,-0.0594 -0.23003,-0.10948 -0.30128,-0.14935 -0.0713,-0.0399 -0.11279,-0.07 -0.12248,-0.0894 -0.0775,-0.15502 -0.16446,-0.30017 -0.25167,-0.43097 -0.0872,-0.13081 -0.17465,-0.24727 -0.25217,-0.34417 -0.15502,-0.19378 -0.27131,-0.31006 -0.27131,-0.31006 0,0 -0.0567,-0.0119 -0.15914,-0.0424 -0.10245,-0.0305 -0.2504,-0.0795 -0.4341,-0.15296 -0.18368,-0.0735 -0.40273,-0.17125 -0.64646,-0.30024 -0.24376,-0.12899 -0.51218,-0.28926 -0.79478,-0.48628 -0.14132,-0.0985 -0.28652,-0.20615 -0.43358,-0.32401 -0.14705,-0.11786 -0.29636,-0.24569 -0.44648,-0.38447 -0.15012,-0.13878 -0.30107,-0.28833 -0.45164,-0.44959 -0.15058,-0.16126 -0.3007,-0.33404 -0.44908,-0.51934 -0.14838,-0.18531 -0.29469,-0.38336 -0.4382,-0.59428 -0.14351,-0.21092 -0.28414,-0.43473 -0.42014,-0.67283 -0.13602,-0.2381 -0.26741,-0.49022 -0.39327,-0.75706 -0.12584,-0.26683 -0.24609,-0.5488 -0.35915,-0.84594 -0.0565,-0.14857 -0.11689,-0.28966 -0.18087,-0.42427 -0.064,-0.13461 -0.13173,-0.2627 -0.20256,-0.38395 -0.0709,-0.12125 -0.1446,-0.23568 -0.2217,-0.34417 -0.0771,-0.10849 -0.1575,-0.21063 -0.24029,-0.30696 -0.0828,-0.0963 -0.16793,-0.18704 -0.2558,-0.27181 -0.0879,-0.0848 -0.17843,-0.1639 -0.27077,-0.23771 -0.0923,-0.0738 -0.18646,-0.14222 -0.28269,-0.20568 -0.0962,-0.0635 -0.19452,-0.12199 -0.29403,-0.1757 -0.19904,-0.10742 0.36311,1.63137 0.15448,1.55936 -0.20865,-0.072 -0.42061,-0.12757 -0.63407,-0.16898 -0.21349,-0.0414 -0.42828,-0.0691 -0.64183,-0.0848 -0.21354,-0.0156 -0.42571,-0.0193 -0.63457,-0.0139 -0.20889,0.005 0.35285,1.48143 -0.61392,0.0413 -0.11181,-0.16655 -0.39306,0.0498 -0.57827,0.0827 -0.37044,0.0657 -0.30571,-1.23858 -0.59074,-1.15627 -0.28506,0.0823 -0.518,0.16285 -0.67956,0.22324 -0.16155,0.0604 -0.25167,0.10025 -0.25167,0.10025 l 0.65786,-6.97942 c 0.15301,-0.10277 0.30499,-0.21531 0.45577,-0.33693 0.15079,-0.12161 0.30015,-0.25215 0.44855,-0.39119 0.14841,-0.13903 -0.87332,-0.72502 -0.72748,-0.88005 0.14586,-0.15504 0.29046,-0.31771 0.43357,-0.48731 0.0884,-0.10474 0.17264,-0.22811 0.25993,-0.33797 z"
         sodipodi:nodetypes="csssscccssssssscssssssssssssssssssssssscssssccsssscc"
         inkscape:export-filename="D:\Project Computer\Project Coding Zakwan\BELAJAR WEB PROGRAMING\PORTFOLIO\img\zakwan.png"
         inkscape:export-xdpi="96"
         inkscape:export-ydpi="96" />
      <path
         id="path950"
         style="fill:#ac9486;fill-opacity:1;stroke:none;stroke-width:0.252825px;stroke-linecap:butt;stroke-linejoin:miter;stroke-opacity:1"
         d="m 141.38766,171.41352 c 0.15301,-0.10277 0.30499,-0.21532 0.45578,-0.33693 0.15079,-0.12162 0.30015,-0.25216 0.44855,-0.39119 0.14841,-0.13904 0.29599,-0.2868 0.44184,-0.44184 0.14585,-0.15503 0.29043,-0.31769 0.43356,-0.4873 0.14313,-0.16961 0.28454,-0.34589 0.42478,-0.52865 0.14025,-0.18276 0.27932,-0.37189 0.41651,-0.56638 0.2744,-0.38898 0.54237,-0.79995 0.80357,-1.22731 0.26121,-0.42736 0.51553,-0.87115 0.76223,-1.3255 0.2467,-0.45436 0.48588,-0.9191 0.71675,-1.38906 0.23088,-0.46997 0.45342,-0.94484 0.66715,-1.41904 0.21373,-0.4742 0.41865,-0.94786 0.61391,-1.4149 0.19526,-0.46704 0.38056,-0.92764 0.55604,-1.37614 0.17548,-0.44851 0.34121,-0.8847 0.49558,-1.30328 0.30873,-0.83717 0.57374,-1.6034 0.79013,-2.25258 0.21639,-0.64918 0.38417,-1.18172 0.49764,-1.55184 0.11348,-0.37013 0.1726,-0.57774 0.1726,-0.57774 0.24665,-0.1142 0.48634,-0.23219 0.72037,-0.35606 0.23404,-0.12386 0.46262,-0.25375 0.68678,-0.39067 0.22417,-0.13692 0.4439,-0.28126 0.66094,-0.4346 0.21705,-0.15334 0.43122,-0.31572 0.64389,-0.48886 0.21268,-0.17313 0.42405,-0.35664 0.6351,-0.55294 0.21106,-0.1963 0.4219,-0.40503 0.63408,-0.62786 0.21217,-0.22284 0.42525,-0.45987 0.6413,-0.71262 0.21605,-0.25275 0.43517,-0.52115 0.65784,-0.80719 0.22267,-0.28604 0.44906,-0.58991 0.68109,-0.9126 0.23204,-0.3227 0.46951,-0.66461 0.71366,-1.02733 0.24415,-0.36272 0.49495,-0.74626 0.75396,-1.15238 0.25901,-0.40613 0.52643,-0.83488 0.80305,-1.28778 0.55324,-0.9058 1.14421,-1.9084 1.78439,-3.02152 0.64017,-1.11313 1.32934,-2.33658 2.07842,-3.68402 0.18727,-0.33686 0.35987,-0.66095 0.51883,-0.97306 0.15896,-0.31211 0.30416,-0.61248 0.43615,-0.90072 0.13199,-0.28825 0.25072,-0.56467 0.35709,-0.82993 0.10636,-0.26526 0.20058,-0.51907 0.28267,-0.76222 0.0821,-0.24316 0.15221,-0.4757 0.21135,-0.69764 0.0592,-0.22193 0.10715,-0.43351 0.1447,-0.6351 0.0376,-0.20159 0.0649,-0.39302 0.0822,-0.57516 0.0173,-0.18213 0.0249,-0.35475 0.0233,-0.51831 -0.002,-0.16356 -0.0124,-0.31819 -0.0315,-0.46406 -0.0192,-0.14586 -0.0473,-0.28281 -0.0827,-0.41186 -0.0354,-0.12905 -0.0784,-0.25016 -0.12867,-0.36328 -0.0503,-0.11312 -0.10775,-0.21819 -0.17157,-0.31626 -0.0638,-0.0981 -0.13379,-0.18895 -0.20981,-0.27285 -0.076,-0.0839 -0.15808,-0.1609 -0.24494,-0.23152 -0.0869,-0.0706 -0.17855,-0.13505 -0.27492,-0.19327 -0.0964,-0.0582 -0.19726,-0.1104 -0.30179,-0.15709 -0.10453,-0.0467 -0.21266,-0.088 -0.32401,-0.12403 -0.11136,-0.036 -0.22578,-0.0667 -0.34262,-0.093 -0.23366,-0.0526 -0.47698,-0.0866 -0.7245,-0.10542 -0.24752,-0.0188 -0.4992,-0.0223 -0.74982,-0.0145 -0.25063,0.008 -0.50013,0.0273 -0.74311,0.0548 -0.24298,0.0275 -0.47976,0.0628 -0.70435,0.10284 -0.2246,0.0401 -0.43705,0.0851 -0.63252,0.13074 -0.39093,0.0913 -0.71301,0.1863 -0.92294,0.25735 -0.20994,0.0711 -0.39441,0.11485 -0.55656,0.13746 -0.16214,0.0226 -0.3022,0.0238 -0.42271,0.009 -0.12051,-0.0145 -0.22141,-0.0444 -0.30644,-0.0848 -0.085,-0.0404 -0.15409,-0.0913 -0.20981,-0.14624 -0.0557,-0.0549 -0.0982,-0.11395 -0.13074,-0.17208 -0.0326,-0.0581 -0.0553,-0.11531 -0.0708,-0.16537 -0.0311,-0.10012 -0.0341,-0.1726 -0.0341,-0.1726 0.22608,-0.6944 0.43644,-1.3799 0.63148,-2.05672 0.19504,-0.67682 0.37462,-1.34491 0.53951,-2.00453 0.16488,-0.65962 0.315,-1.31058 0.45062,-1.95337 0.13561,-0.64278 0.25707,-1.27743 0.36431,-1.90376 0.10724,-0.62632 0.20034,-1.24443 0.28009,-1.85466 0.0797,-0.61024 0.1458,-1.21261 0.19895,-1.80713 0.0532,-0.59452 0.0935,-1.18144 0.12093,-1.76062 0.0274,-0.57917 0.0423,-1.15042 0.045,-1.71462 0.003,-0.5642 -0.007,-1.1211 -0.0284,-1.6707 -0.0213,-0.5496 -0.0543,-1.09192 -0.0987,-1.62729 -0.0444,-0.53537 -0.0999,-1.06392 -0.1664,-1.58543 -0.0665,-0.52152 -0.14375,-1.03606 -0.23151,-1.54409 -0.0878,-0.50804 -0.18591,-1.00938 -0.29404,-1.5043 -0.10813,-0.49493 -0.22637,-0.98337 -0.35398,-1.46555 -0.12762,-0.48218 -0.26462,-0.95852 -0.41083,-1.42834 -0.1462,-0.46981 -0.30169,-0.9333 -0.4656,-1.39112 -0.16391,-0.45783 -0.33656,-0.90979 -0.51728,-1.35599 -0.18073,-0.4462 -0.36973,-0.88642 -0.56638,-1.32137 -0.19665,-0.43495 -0.40068,-0.864744 -0.61236,-1.288814 -0.21169,-0.42407 -0.43098,-0.84269 -0.65681,-1.25625 -0.22583,-0.41357 -0.45854,-0.82182 -0.69763,-1.22525 -0.23909,-0.40343 -0.48442,-0.80213 -0.73587,-1.19579 -0.25146,-0.39367 -0.50912,-0.78258 -0.77205,-1.16686 -0.26293,-0.38428 -0.53108,-0.76369 -0.8046,-1.13895 -0.27352,-0.37526 -0.55239,-0.74598 -0.83561,-1.11259 -0.28322,-0.36661 -0.57097,-0.72945 -0.863,-1.08779 -0.29203,-0.35834 -0.58836,-0.71254 -0.88831,-1.06298 -0.29996,-0.35044 -0.60356,-0.69682 -0.91054,-1.03973 -0.61396,-0.68583 -1.24118,-1.35693 -1.87792,-2.01487 -0.63675,-0.65794 -1.28287,-1.30276 -1.93529,-1.9358 -0.3262,-0.31652 -0.65051,-0.62254 -0.97306,-0.91881 -0.32256,-0.29626 -0.64337,-0.58268 -0.96222,-0.85937 -0.31885,-0.27669 -0.63574,-0.54372 -0.95085,-0.80151 -0.3151,-0.25778 -0.62867,-0.50664 -0.93999,-0.7462 -0.31132,-0.23956 -0.62062,-0.46994 -0.92811,-0.69195 -0.30749,-0.22201 -0.61313,-0.43566 -0.91674,-0.64079 -0.30361,-0.20513 -0.60516,-0.40173 -0.90485,-0.59066 -0.29969,-0.18893 -0.59724,-0.36972 -0.89297,-0.54312 -0.29573,-0.1734 -0.58937,-0.33961 -0.88109,-0.49816 -0.29171,-0.15855 -0.58153,-0.30987 -0.86919,-0.45424 -0.28767,-0.14436 -0.57323,-0.28151 -0.8568,-0.41237 -0.28357,-0.13087 -0.56496,-0.25507 -0.84439,-0.37311 -0.27943,-0.11804 -0.55675,-0.23001 -0.83199,-0.33589 -0.27524,-0.10589 -0.54858,-0.20584 -0.81959,-0.30024 -0.54202,-0.18882 -1.07558,-0.35534 -1.60042,-0.5023 -0.52484,-0.14695 -1.04092,-0.2745 -1.54822,-0.38499 -0.50731,-0.11049 -1.00559,-0.20375 -1.495,-0.28318 -0.48942,-0.0794 -0.97009,-0.14467 -1.44126,-0.19844 -0.47117,-0.0538 -0.93287,-0.0962 -1.38545,-0.12971 -0.45257,-0.0335 -0.89601,-0.0583 -1.32963,-0.077 -0.43362,-0.0186 -0.85744,-0.0311 -1.27176,-0.0403 -0.82864,-0.0184 -1.6185,-0.0233 -2.36781,-0.0362 -0.18733,-0.003 -0.38294,0.002 -0.58601,0.016 -0.20307,0.0139 -0.41349,0.0365 -0.63149,0.0672 -0.21799,0.0306 -0.4433,0.0694 -0.67541,0.11627 -0.23211,0.0469 -0.47134,0.10207 -0.71675,0.16485 -0.24541,0.0628 -0.49709,0.13315 -0.75499,0.21136 -0.2579,0.0782 -0.5216,0.16414 -0.79117,0.25734 -0.26957,0.0932 -0.54484,0.19401 -0.82527,0.3018 -0.28043,0.10778 -0.56632,0.22223 -0.8568,0.34416 -0.58095,0.24385 -1.18105,0.51606 -1.7973,0.8139 -0.61626,0.29785 -1.24838,0.62156 -1.89343,0.96997 -0.64504,0.34841 -1.30309,0.72118 -1.97042,1.11673 -0.66733,0.39554 -1.34417,0.8139 -2.02727,1.25315 -0.68309,0.43925 -1.37263,0.89972 -2.06499,1.37925 -0.69236,0.47952 -1.38745,0.97812 -2.08256,1.49448 -0.6951,0.51636 -1.39017,1.05013 -2.08152,1.5999 -0.69135,0.54977 -1.37926,1.11524 -2.06034,1.69499 -0.68108,0.57974 -1.35522,1.17396 -2.01952,1.78025 -0.6643,0.60629 -1.31856,1.22475 -1.95957,1.85415 -0.64101,0.6294 -1.26878,1.26966 -1.87999,1.91875 -0.61121,0.64908 -1.20587,1.30715 -1.78077,1.97249 -0.14372,0.16633 -0.28406,0.33625 -0.42064,0.51004 -0.13659,0.1738 -0.26934,0.35133 -0.39895,0.53227 -0.2592,0.36187 -0.5047,0.73803 -0.7369,1.12655 -0.2322,0.38852 -0.4514,0.78938 -0.65784,1.20199 -0.20644,0.41261 -0.39995,0.83657 -0.58188,1.27072 -0.18193,0.43416 -0.35191,0.878574 -0.51056,1.331704 -0.15865,0.45314 -0.30625,0.91537 -0.44287,1.38493 -0.13662,0.46957 -0.26244,0.94645 -0.37827,1.42989 -0.11583,0.48344 -0.22152,0.97337 -0.31781,1.46813 -0.0963,0.49476 -0.18298,0.99457 -0.26096,1.4981 -0.078,0.50352 -0.14734,1.01058 -0.20826,1.52032 -0.0609,0.50973 -0.11354,1.02191 -0.15865,1.5353 -0.0451,0.5134 -0.0826,1.02805 -0.11317,1.54255 -0.0305,0.51449 -0.0541,1.02898 -0.0713,1.54202 -0.0172,0.51304 -0.028,1.02473 -0.0331,1.53376 -0.005,0.50903 -0.005,1.01527 10e-4,1.51774 0.006,0.50246 0.0167,1.00113 0.032,1.49448 0.0307,0.98669 0.0794,1.95278 0.14107,2.88768 0.0616,0.93489 0.13593,1.83847 0.2186,2.70112 0.0827,0.86266 0.17342,1.68414 0.26716,2.45412 0.0937,0.76997 0.1909,1.48875 0.28577,2.1456 0.0949,0.65686 0.18782,1.25179 0.27389,1.77509 0.0861,0.5233 0.16522,0.9748 0.23254,1.3441 0.13464,0.73861 0.22169,1.14877 0.22169,1.14877 -0.60073,-0.12273 -1.15299,-0.25194 -1.66088,-0.37517 -0.50788,-0.12324 -0.97164,-0.24061 -1.39474,-0.33952 -0.4231,-0.0989 -0.80548,-0.17917 -1.15187,-0.22892 -0.1732,-0.0249 -0.33746,-0.0422 -0.49299,-0.0501 -0.15554,-0.008 -0.30244,-0.007 -0.44132,0.005 -0.13888,0.0121 -0.26951,0.035 -0.39274,0.0703 -0.12324,0.0353 -0.23918,0.0832 -0.34779,0.14469 -0.1086,0.0615 -0.20991,0.13702 -0.30489,0.22789 -0.095,0.0909 -0.18377,0.19706 -0.26613,0.3204 -0.0824,0.12334 -0.15817,0.26381 -0.22892,0.42271 -0.0708,0.15891 -0.13622,0.33625 -0.19638,0.53382 -0.0602,0.19757 -0.11531,0.4154 -0.16588,0.65474 -0.0506,0.23934 -0.0965,0.50023 -0.13849,0.78445 -0.021,0.14211 -0.0286,0.29483 -0.0238,0.45734 0.005,0.1625 0.0221,0.33494 0.0512,0.51624 0.029,0.1813 0.0698,0.37151 0.12144,0.56999 0.0516,0.19849 0.11395,0.40501 0.18655,0.61909 0.0726,0.21407 0.1556,0.43546 0.24753,0.66352 0.0919,0.22806 0.19318,0.46288 0.30282,0.70332 0.21929,0.48088 0.47203,0.98505 0.75241,1.50585 0.28039,0.5208 0.58825,1.0582 0.91674,1.6061 0.32849,0.5479 0.67768,1.10593 1.04128,1.66812 0.3636,0.56218 0.74135,1.12876 1.12707,1.6924 0.38571,0.56365 0.77924,1.12461 1.17408,1.6769 0.39484,0.55229 0.79139,1.09556 1.18236,1.62367 0.39097,0.52812 0.77674,1.04108 1.15084,1.53221 0.74819,0.98226 1.44931,1.8776 2.05207,2.63498 0.60275,0.75738 1.10701,1.37665 1.46037,1.80661 0.35336,0.42996 0.55604,0.67076 0.55604,0.67076 0.0404,0.26807 0.088,0.53736 0.14211,0.80719 0.0541,0.26982 0.11497,0.54037 0.1819,0.81132 0.0669,0.27095 0.13981,0.54194 0.21859,0.81338 0.0788,0.27144 0.16353,0.54312 0.25322,0.81443 0.17938,0.5426 0.37958,1.08437 0.59686,1.62263 0.21729,0.53827 0.4516,1.0731 0.69918,1.60197 0.24759,0.52888 0.50798,1.05187 0.77825,1.56632 0.27027,0.51444 0.55025,1.02019 0.83561,1.51515 0.28535,0.49496 0.57637,0.97909 0.8692,1.44952 0.29283,0.47044 0.58735,0.92701 0.88004,1.36788 0.2927,0.44086 0.58373,0.86603 0.86868,1.27227 0.28496,0.40625 0.56393,0.79407 0.83355,1.16065 0.53922,0.73316 1.04007,1.38177 1.47226,1.92599 0.43218,0.54421 0.7956,0.98372 1.05988,1.29862 0.26429,0.31491 0.42956,0.50514 0.46509,0.55036 0,0 10.56783,13.66842 19.04277,12.94494 8.47493,-0.72347 21.33668,-13.83636 21.33668,-13.83636 z"
         inkscape:export-filename="D:\Project Computer\Project Coding Zakwan\BELAJAR WEB PROGRAMING\PORTFOLIO\img\zakwan.png"
         inkscape:export-xdpi="96"
         inkscape:export-ydpi="96" />
      <path
         id="path952"
         style="fill:#000000;fill-opacity:1;stroke:none;stroke-width:0.252825px;stroke-linecap:butt;stroke-linejoin:miter;stroke-opacity:1"
         d="m 155.91442,130.67957 c 0.11304,-0.3472 0.2224,-0.69229 0.32763,-1.03508 0.10522,-0.34278 0.20633,-0.68323 0.30385,-1.02164 0.0975,-0.33841 0.1912,-0.67463 0.28112,-1.00872 0.0899,-0.33409 0.17594,-0.666 0.25839,-0.99581 0.0824,-0.32981 0.16109,-0.65731 0.23616,-0.98288 0.0751,-0.32558 0.14665,-0.6491 0.21446,-0.97049 0.0678,-0.32139 0.13209,-0.64082 0.19275,-0.95808 0.0607,-0.31725 0.11794,-0.63252 0.17156,-0.94568 0.0536,-0.31316 0.10369,-0.62416 0.15038,-0.93327 0.0467,-0.30912 0.0898,-0.61628 0.12971,-0.92139 0.0399,-0.30512 0.0764,-0.60835 0.10955,-0.90951 0.0332,-0.30116 0.0628,-0.60036 0.0894,-0.89762 0.0266,-0.29726 0.0502,-0.59285 0.0703,-0.88625 0.0201,-0.2934 0.0369,-0.58478 0.0507,-0.87437 0.0137,-0.28958 0.0241,-0.57717 0.0315,-0.86299 0.007,-0.28582 0.0121,-0.56953 0.0134,-0.85163 0.001,-0.2821 -4.5e-4,-0.56235 -0.005,-0.84078 -0.005,-0.27842 -0.0126,-0.55512 -0.0233,-0.82992 -0.0106,-0.2748 -0.0244,-0.54785 -0.0408,-0.81907 -0.0165,-0.27122 -0.0357,-0.54053 -0.0579,-0.80822 -0.0222,-0.26769 -0.0472,-0.53368 -0.0749,-0.79788 -0.0278,-0.2642 -0.0582,-0.52679 -0.0915,-0.78755 -0.0333,-0.26076 -0.0694,-0.51985 -0.108,-0.77722 -0.0386,-0.25736 -0.0796,-0.51286 -0.12351,-0.76687 -0.0439,-0.25402 -0.0905,-0.50635 -0.13952,-0.75706 -0.049,-0.25072 -0.10045,-0.49978 -0.15452,-0.74724 -0.0541,-0.24747 -0.11102,-0.49369 -0.17001,-0.73794 -0.059,-0.24426 -0.12016,-0.48652 -0.18397,-0.72761 -0.0638,-0.24109 -0.12993,-0.48084 -0.19844,-0.71882 -0.0685,-0.23797 -0.13928,-0.47461 -0.21239,-0.70952 -0.0731,-0.2349 -0.14875,-0.46781 -0.22634,-0.69969 -0.0776,-0.23189 -0.15731,-0.46252 -0.23926,-0.69143 -0.16391,-0.45783 -0.33656,-0.90979 -0.51728,-1.35599 -0.18073,-0.4462 -0.36973,-0.88642 -0.56638,-1.32137 -0.19665,-0.43495 -0.40068,-0.864744 -0.61236,-1.288814 -0.21169,-0.42407 -0.43098,-0.84269 -0.65681,-1.25625 -0.22583,-0.41357 -0.45854,-0.82182 -0.69763,-1.22525 -0.23909,-0.40343 -0.48442,-0.80213 -0.73587,-1.19579 -0.25146,-0.39367 -0.50912,-0.78258 -0.77205,-1.16686 -0.26293,-0.38428 -0.53108,-0.76369 -0.8046,-1.13895 -0.27352,-0.37526 -0.55239,-0.74598 -0.83561,-1.11259 -0.28322,-0.36661 -0.57097,-0.72945 -0.863,-1.08779 -0.29203,-0.35834 -0.58836,-0.71254 -0.88831,-1.06298 -0.29996,-0.35044 -0.60356,-0.69682 -0.91054,-1.03973 -0.30698,-0.34292 -0.61706,-0.68228 -0.93018,-1.01803 -0.31312,-0.33575 -0.62937,-0.66787 -0.94774,-0.99684 -0.31838,-0.32897 -0.63897,-0.65464 -0.9617,-0.9772 -0.32274,-0.32256 -0.64738,-0.64208 -0.97359,-0.9586 -0.3262,-0.31652 -0.65051,-0.62254 -0.97306,-0.91881 -0.32256,-0.29626 -0.64337,-0.58268 -0.96222,-0.85937 -0.31885,-0.27669 -0.63574,-0.54372 -0.95085,-0.80151 -0.3151,-0.25778 -0.62867,-0.50664 -0.93999,-0.7462 -0.31132,-0.23956 -0.62062,-0.46994 -0.92811,-0.69195 -0.30749,-0.22201 -0.61313,-0.43566 -0.91674,-0.64079 -0.30361,-0.20513 -0.60516,-0.40173 -0.90485,-0.59066 -0.29969,-0.18893 -0.59724,-0.36972 -0.89297,-0.54312 -0.29573,-0.1734 -0.58937,-0.33961 -0.88109,-0.49816 -0.29171,-0.15855 -0.58153,-0.30987 -0.86919,-0.45424 -0.28767,-0.14436 -0.57323,-0.28151 -0.8568,-0.41237 -0.28357,-0.13087 -0.56496,-0.25507 -0.84439,-0.37311 -0.27943,-0.11804 -0.55675,-0.23001 -0.83199,-0.33589 -0.27524,-0.10589 -0.54858,-0.20584 -0.81959,-0.30024 -0.27101,-0.0944 -0.53993,-0.18305 -0.80667,-0.26666 -0.26674,-0.0836 -0.53133,-0.16216 -0.79375,-0.23564 -0.26242,-0.0735 -0.52277,-0.14216 -0.78083,-0.20619 -0.25806,-0.064 -0.51374,-0.12355 -0.76739,-0.1788 -0.25366,-0.0553 -0.50528,-0.10633 -0.75448,-0.15348 -0.2492,-0.0471 -0.49582,-0.09 -0.74052,-0.1297 -0.24471,-0.0397 -0.48744,-0.0761 -0.72761,-0.10904 -0.24017,-0.033 -0.47807,-0.0625 -0.71365,-0.0894 -0.47117,-0.0538 -0.93287,-0.0962 -1.38545,-0.12971 -0.45257,-0.0335 -0.89601,-0.0583 -1.32963,-0.077 -0.43362,-0.0186 -0.85744,-0.0311 -1.27176,-0.0403 -0.82864,-0.0184 -1.6185,-0.0233 -2.36781,-0.0362 -0.18733,-0.003 -0.38294,0.002 -0.58601,0.016 -0.20307,0.0139 -0.41349,0.0365 -0.63149,0.0672 -0.21799,0.0306 -0.4433,0.0694 -0.67541,0.11627 -0.23211,0.0469 -0.47134,0.10207 -0.71675,0.16485 -0.24541,0.0628 -0.49709,0.13315 -0.75499,0.21136 -0.2579,0.0782 -0.5216,0.16414 -0.79117,0.25734 -0.26957,0.0932 -0.54484,0.19401 -0.82527,0.3018 -0.28043,0.10778 -0.56632,0.22223 -0.8568,0.34416 -0.29048,0.12192 -0.5855,0.2509 -0.88521,0.38654 -0.29971,0.13564 -0.60397,0.27844 -0.91209,0.42736 -0.30813,0.14893 -0.62013,0.30435 -0.93586,0.46613 -0.31574,0.16177 -0.63504,0.32963 -0.95757,0.50384 -0.32252,0.17421 -0.6487,0.35433 -0.9772,0.54053 -0.3285,0.18621 -0.65956,0.37842 -0.99322,0.5762 -0.33366,0.19777 -0.66968,0.40138 -1.00769,0.6103 -0.33801,0.20891 -0.67803,0.42323 -1.01958,0.64285 -0.34155,0.21963 -0.6846,0.44447 -1.02887,0.67438 -0.34427,0.22991 -0.68994,0.46511 -1.03612,0.70487 -0.34617,0.23976 -0.69297,0.4841 -1.04024,0.73328 -0.34728,0.24919 -0.69476,0.50302 -1.04232,0.7612 -0.34755,0.25818 -0.69529,0.5208 -1.04231,0.78755 -0.34702,0.26674 -0.69354,0.53747 -1.03921,0.81235 -0.34568,0.27488 -0.69053,0.55405 -1.03405,0.83664 -0.34351,0.2826 -0.68575,0.56847 -1.02629,0.85835 -0.34054,0.28987 -0.67921,0.58332 -1.01596,0.88005 -0.33675,0.29672 -0.67141,0.59705 -1.00356,0.9002 -0.33215,0.30314 -0.66183,0.60915 -0.98857,0.91829 -0.32673,0.30914 -0.65049,0.62116 -0.971,0.93586 -0.3205,0.3147 -0.6379,0.63205 -0.95136,0.95188 -0.31346,0.31984 -0.62302,0.64233 -0.92863,0.96687 -0.3056,0.32454 -0.60688,0.65148 -0.90382,0.9803 -0.29693,0.32882 -0.58949,0.65952 -0.87695,0.99219 -0.14372,0.16633 -0.28406,0.33625 -0.42064,0.51004 -0.13659,0.1738 -0.26934,0.35133 -0.39895,0.53227 -0.1296,0.18093 -0.25601,0.3657 -0.37878,0.55345 -0.12278,0.18776 -0.24202,0.37884 -0.35812,0.5731 -0.1161,0.19426 -0.2289,0.39125 -0.33848,0.59169 -0.10959,0.20044 -0.21614,0.40399 -0.31936,0.6103 -0.10322,0.20631 -0.20323,0.4155 -0.30024,0.62735 -0.097,0.21185 -0.19067,0.4263 -0.28164,0.64337 -0.091,0.21708 -0.179,0.4369 -0.26407,0.658884 -0.0851,0.22198 -0.16716,0.44626 -0.24649,0.67282 -0.0793,0.22657 -0.15622,0.45543 -0.22996,0.68627 -0.0737,0.23083 -0.1446,0.46388 -0.21291,0.69866 -0.0683,0.23479 -0.13385,0.47111 -0.19689,0.70952 -0.063,0.23841 -0.12346,0.47865 -0.18138,0.72037 -0.0579,0.24172 -0.11344,0.48496 -0.1664,0.72967 -0.053,0.24471 -0.10326,0.49108 -0.15141,0.73846 -0.0963,0.49476 -0.18298,0.99457 -0.26096,1.4981 -0.078,0.50352 -0.14734,1.01058 -0.20826,1.52032 -0.0609,0.50973 -0.11354,1.02191 -0.15865,1.5353 -0.0451,0.5134 -0.0826,1.02805 -0.11317,1.54255 -0.0305,0.51449 -0.0541,1.02898 -0.0713,1.54202 -0.0172,0.51304 -0.028,1.02473 -0.0331,1.53376 -0.005,0.50903 -0.005,1.01527 0.001,1.51774 0.006,0.50246 0.0167,1.00113 0.032,1.49448 0.0153,0.49335 0.0352,0.98128 0.0589,1.46296 0.0237,0.48167 0.0513,0.95727 0.0822,1.42472 0.0308,0.46744 0.0646,0.92702 0.10129,1.37769 0.0367,0.45066 0.076,0.89211 0.11731,1.32343 0.0413,0.43133 0.085,0.85251 0.1297,1.26194 0.0447,0.40944 0.0906,0.80719 0.13746,1.19218 0.0937,0.76997 0.1909,1.48875 0.28577,2.1456 0.0949,0.65686 0.18782,1.25179 0.27389,1.77509 0.0861,0.5233 0.16522,0.9748 0.23254,1.3441 0.13464,0.73861 0.22169,1.14877 0.22169,1.14877 0,0 1.3436,1.44694 2.37712,1.44694 h 1.03353 c 0,0 -0.41342,-35.656754 9.09505,-38.343914 9.50846,-2.68717 38.96403,-4.23747 44.75179,-0.62012 5.78776,3.61735 9.56014,36.793624 9.56014,36.793624 0,0 0.82682,1.91202 3.35897,-0.20671 z"
         inkscape:export-filename="D:\Project Computer\Project Coding Zakwan\BELAJAR WEB PROGRAMING\PORTFOLIO\img\zakwan.png"
         inkscape:export-xdpi="96"
         inkscape:export-ydpi="96" />
      <path
         id="path954"
         style="fill:#a68b7d;fill-opacity:1;stroke:none;stroke-width:0.252825px;stroke-linecap:butt;stroke-linejoin:miter;stroke-opacity:1"
         d="m 150.08428,154.82384 c 0.12333,-0.0571 0.24484,-0.11537 0.36484,-0.17467 0.12,-0.0593 0.23851,-0.11945 0.35553,-0.18139 0.11702,-0.0619 0.23237,-0.1257 0.34675,-0.19068 0.11438,-0.065 0.22795,-0.13153 0.34003,-0.19999 0.11209,-0.0685 0.22267,-0.13849 0.3328,-0.21084 0.11013,-0.0724 0.21962,-0.14709 0.32814,-0.22376 0.10853,-0.0767 0.21624,-0.15527 0.3235,-0.23668 0.10726,-0.0814 0.21405,-0.16561 0.32039,-0.25218 0.10634,-0.0866 0.21257,-0.17553 0.31833,-0.26768 0.10576,-0.0921 0.21125,-0.18711 0.31677,-0.28526 0.10553,-0.0982 0.21063,-0.1998 0.31627,-0.30437 0.10563,-0.10457 0.21172,-0.21207 0.31781,-0.32349 0.10608,-0.11142 0.21247,-0.22652 0.31936,-0.3452 0.10688,-0.11869 0.21392,-0.24105 0.32194,-0.36742 0.10802,-0.12638 0.21709,-0.25671 0.32659,-0.39119 0.10951,-0.13449 0.21992,-0.27298 0.33125,-0.416 0.11133,-0.14302 0.22343,-0.29089 0.33693,-0.44286 0.1135,-0.15198 0.22815,-0.3084 0.34416,-0.46974 0.11602,-0.16135 0.23357,-0.32754 0.35244,-0.49868 0.11887,-0.17114 0.23914,-0.34729 0.36122,-0.52865 0.12207,-0.18136 0.24593,-0.36766 0.37155,-0.55966 0.12562,-0.192 0.2529,-0.38966 0.38241,-0.59272 0.1295,-0.20307 0.26107,-0.41178 0.39481,-0.62632 0.13373,-0.21455 0.26993,-0.43501 0.40824,-0.66146 0.13831,-0.22645 0.27897,-0.45886 0.4222,-0.69763 0.14322,-0.23878 0.28869,-0.48384 0.43718,-0.73536 0.14849,-0.25152 0.29962,-0.50942 0.45372,-0.77411 0.15409,-0.26469 0.31124,-0.53614 0.47129,-0.81442 0.32008,-0.55657 0.65244,-1.14045 0.99838,-1.7539 0.34595,-0.61346 0.7055,-1.2564 1.08004,-1.93012 0.0936,-0.16843 0.1838,-0.3339 0.27027,-0.49609 0.0865,-0.16219 0.16908,-0.32092 0.24856,-0.47697 0.0795,-0.15606 0.15576,-0.30937 0.22841,-0.45941 0.0727,-0.15003 0.14175,-0.29719 0.20774,-0.44131 0.066,-0.14413 0.1286,-0.28491 0.18811,-0.42323 0.0595,-0.13832 0.11579,-0.27407 0.16898,-0.4067 0.0532,-0.13263 0.10335,-0.26207 0.15038,-0.38912 0.047,-0.12705 0.0912,-0.25153 0.13229,-0.3731 0.041,-0.12158 0.079,-0.24035 0.1142,-0.35657 0.0352,-0.11622 0.0676,-0.2301 0.0971,-0.34107 0.0296,-0.11096 0.0565,-0.21921 0.0806,-0.32504 0.0241,-0.10583 0.0453,-0.20926 0.0641,-0.31006 0.0188,-0.1008 0.035,-0.19868 0.0486,-0.29455 0.0136,-0.0959 0.0249,-0.18954 0.0336,-0.28061 0.009,-0.0911 0.0148,-0.17976 0.0186,-0.26613 0.004,-0.0864 0.005,-0.1704 0.005,-0.25218 -8.1e-4,-0.0818 -0.004,-0.16145 -0.009,-0.23875 -0.005,-0.0773 -0.0126,-0.15237 -0.0222,-0.22531 -0.01,-0.0729 -0.0214,-0.14371 -0.0351,-0.21239 -0.0137,-0.0687 -0.0299,-0.13494 -0.0476,-0.19947 -0.0177,-0.0645 -0.0369,-0.1271 -0.0584,-0.18758 -0.0215,-0.0605 -0.0451,-0.11914 -0.0703,-0.1757 -0.0251,-0.0566 -0.052,-0.11108 -0.0806,-0.16382 -0.0286,-0.0527 -0.059,-0.10341 -0.0909,-0.15244 -0.0319,-0.049 -0.0652,-0.0967 -0.10025,-0.14211 -0.035,-0.0454 -0.0716,-0.0888 -0.10956,-0.13074 -0.038,-0.042 -0.0775,-0.0824 -0.11833,-0.12093 -0.0408,-0.0386 -0.0832,-0.0753 -0.12661,-0.11059 -0.0434,-0.0353 -0.0879,-0.0691 -0.13384,-0.10128 -0.0459,-0.0322 -0.0929,-0.0629 -0.14108,-0.092 -0.0482,-0.0291 -0.0975,-0.0565 -0.14779,-0.0827 -0.0503,-0.0262 -0.10173,-0.0511 -0.154,-0.0744 -0.0523,-0.0233 -0.10562,-0.045 -0.15968,-0.0656 -0.0541,-0.0206 -0.10865,-0.0404 -0.16433,-0.0584 -0.0557,-0.018 -0.11237,-0.0346 -0.1695,-0.0501 -0.0571,-0.0155 -0.1147,-0.0298 -0.17312,-0.0429 -0.0584,-0.0131 -0.11771,-0.0253 -0.17725,-0.0362 -0.0595,-0.0109 -0.11935,-0.0207 -0.17983,-0.0294 -0.0605,-0.009 -0.12167,-0.0161 -0.18293,-0.0227 -0.0613,-0.007 -0.12261,-0.0123 -0.18449,-0.0171 -0.0619,-0.005 -0.12423,-0.008 -0.18655,-0.0114 -0.0623,-0.003 -0.12498,-0.005 -0.18759,-0.006 -0.1252,-0.002 -0.25037,-8.3e-4 -0.37568,0.003 -0.12532,0.004 -0.25059,0.0103 -0.37466,0.0196 -0.12407,0.009 -0.24696,0.0214 -0.36845,0.0351 -0.12149,0.0138 -0.24159,0.0292 -0.35915,0.0465 -0.11757,0.0173 -0.2329,0.0363 -0.3452,0.0563 -0.1123,0.02 -0.22143,0.0412 -0.32711,0.0631 -0.10569,0.0219 -0.20768,0.0449 -0.30541,0.0677 -0.0977,0.0228 -0.19114,0.0459 -0.27957,0.0687 -0.0884,0.0229 -0.1718,0.0451 -0.2496,0.0672 -0.0778,0.0221 -0.15019,0.0437 -0.21601,0.0641 -0.0658,0.0204 -0.12528,0.0396 -0.17776,0.0574 -0.0525,0.0178 -0.10361,0.0336 -0.15297,0.0481 -0.0494,0.0145 -0.0968,0.0274 -0.14314,0.0388 -0.0463,0.0113 -0.0915,0.0215 -0.13487,0.03 -0.0434,0.008 -0.085,0.015 -0.12558,0.0207 -0.0405,0.006 -0.0795,0.0104 -0.1173,0.0134 -0.0378,0.003 -0.0744,0.005 -0.10956,0.005 -0.0351,6.6e-4 -0.0692,5.5e-4 -0.1018,-0.001 -0.0326,-0.002 -0.0639,-0.005 -0.094,-0.008 -0.0301,-0.004 -0.0591,-0.008 -0.0868,-0.0134 -0.0278,-0.006 -0.0541,-0.0119 -0.0796,-0.0191 -0.0255,-0.007 -0.05,-0.0155 -0.0734,-0.0243 -0.0233,-0.009 -0.0454,-0.0178 -0.0667,-0.0279 -0.0213,-0.0101 -0.0417,-0.0213 -0.061,-0.0325 -0.0193,-0.0113 -0.0374,-0.0229 -0.0548,-0.0351 -0.0174,-0.0123 -0.034,-0.0252 -0.0496,-0.0382 -0.0156,-0.0131 -0.0305,-0.0266 -0.0444,-0.0403 -0.0279,-0.0275 -0.0522,-0.0558 -0.0739,-0.0847 -0.0217,-0.029 -0.0406,-0.0583 -0.0568,-0.0873 -0.0163,-0.0291 -0.0302,-0.058 -0.0419,-0.0858 -0.0116,-0.0277 -0.0212,-0.0546 -0.0289,-0.0796 -0.008,-0.025 -0.0134,-0.0483 -0.0181,-0.0693 -0.005,-0.0209 -0.008,-0.0389 -0.0103,-0.0542 -0.005,-0.0307 -0.006,-0.0491 -0.006,-0.0491 -4.03077,3.30729 -5.83014,24.14427 -5.83014,24.14427 z"
         inkscape:export-filename="D:\Project Computer\Project Coding Zakwan\BELAJAR WEB PROGRAMING\PORTFOLIO\img\zakwan.png"
         inkscape:export-xdpi="96"
         inkscape:export-ydpi="96" />
      <path
         id="path956"
         style="fill:#a68b7d;fill-opacity:1;stroke:none;stroke-width:0.252825px;stroke-linecap:butt;stroke-linejoin:miter;stroke-opacity:1"
         d="m 85.73782,131.60975 c -0.15018,-0.0307 -0.29712,-0.0617 -0.44131,-0.093 -0.14419,-0.0313 -0.28542,-0.0631 -0.42375,-0.0946 -0.27665,-0.063 -0.54188,-0.12597 -0.79582,-0.18758 -0.25394,-0.0616 -0.49691,-0.12172 -0.72915,-0.1788 -0.23224,-0.0571 -0.45404,-0.11126 -0.66559,-0.16072 -0.10578,-0.0247 -0.20875,-0.048 -0.30955,-0.0703 -0.10079,-0.0222 -0.19913,-0.0432 -0.29507,-0.0625 -0.0959,-0.0194 -0.1894,-0.0371 -0.2806,-0.0532 -0.0912,-0.0161 -0.18005,-0.0305 -0.26665,-0.0429 -0.0866,-0.0124 -0.1711,-0.0231 -0.25322,-0.0315 -0.0821,-0.008 -0.16201,-0.0146 -0.23977,-0.0186 -0.0778,-0.004 -0.15332,-0.005 -0.22686,-0.005 -0.0735,8.5e-4 -0.14502,0.004 -0.21446,0.01 -0.0694,0.006 -0.13711,0.0152 -0.20257,0.0269 -0.0327,0.006 -0.0649,0.0123 -0.0966,0.0196 -0.0318,0.007 -0.0627,0.0149 -0.0935,0.0238 -0.0308,0.009 -0.0611,0.0186 -0.091,0.0289 -0.0299,0.0104 -0.0594,0.0216 -0.0884,0.0336 -0.029,0.012 -0.0577,0.0251 -0.0858,0.0388 -0.028,0.0137 -0.0555,0.028 -0.0827,0.0434 -0.0271,0.0154 -0.0538,0.0314 -0.0801,0.0486 -0.0263,0.0171 -0.0521,0.0353 -0.0775,0.0543 -0.0254,0.019 -0.0504,0.0386 -0.0749,0.0594 -0.0246,0.0208 -0.0486,0.0429 -0.0724,0.0656 -0.0237,0.0227 -0.0473,0.0461 -0.0703,0.0708 -0.0229,0.0247 -0.0456,0.0503 -0.0677,0.077 -0.0221,0.0267 -0.0438,0.0545 -0.0651,0.0832 -0.0214,0.0287 -0.0425,0.0586 -0.063,0.0894 -0.0206,0.0308 -0.0406,0.0626 -0.0605,0.0956 -0.0198,0.033 -0.0393,0.0671 -0.0584,0.10232 -0.0191,0.0352 -0.0379,0.0716 -0.0563,0.10904 -0.0184,0.0374 -0.0361,0.076 -0.0537,0.11575 -0.0354,0.0794 -0.0697,0.16326 -0.10232,0.25218 -0.0327,0.0889 -0.064,0.18285 -0.0941,0.28164 -0.0301,0.0988 -0.0587,0.20257 -0.0863,0.31161 -0.0276,0.10903 -0.0543,0.22346 -0.0796,0.34313 -0.0253,0.11967 -0.0493,0.24447 -0.0723,0.37517 -0.0231,0.1307 -0.0452,0.26717 -0.0661,0.40928 -0.005,0.0355 -0.01,0.0717 -0.0134,0.10852 -0.004,0.0368 -0.006,0.0745 -0.008,0.11265 -0.002,0.0381 -0.003,0.0769 -0.004,0.11628 -3.7e-4,0.0394 3.4e-4,0.0793 0.002,0.11989 0.002,0.0812 0.008,0.16509 0.0165,0.25114 0.009,0.0861 0.0201,0.17445 0.0346,0.2651 0.0145,0.0907 0.0319,0.18349 0.0522,0.27854 0.0203,0.095 0.0434,0.19221 0.0692,0.29145 0.0258,0.0992 0.0546,0.20062 0.0858,0.30386 0.0312,0.10324 0.0645,0.20819 0.10077,0.31523 0.0363,0.10703 0.0756,0.21596 0.11679,0.32659 0.0412,0.11063 0.0848,0.2229 0.13074,0.33693 0.046,0.11403 0.0942,0.23004 0.14469,0.34727 0.0505,0.11722 0.10331,0.23583 0.15813,0.35605 0.0548,0.12022 0.11159,0.24182 0.17053,0.36483 0.0589,0.12302 0.12008,0.2475 0.18294,0.37311 0.0629,0.12561 0.1272,0.25233 0.19379,0.38034 0.0666,0.128 0.13506,0.25737 0.20515,0.38757 0.0701,0.1302 0.14209,0.26106 0.21549,0.39326 0.0734,0.13219 0.14828,0.26547 0.2248,0.39946 0.0765,0.13399 0.15467,0.26904 0.23409,0.40462 0.0794,0.13559 0.16024,0.27179 0.24236,0.40876 0.16425,0.27395 0.33363,0.55057 0.50747,0.82889 0.17383,0.27832 0.35201,0.55814 0.53381,0.83923 0.1818,0.28109 0.36738,0.56317 0.55552,0.84542 0.18815,0.28226 0.37869,0.56516 0.57155,0.84698 0.19286,0.28182 0.38799,0.56306 0.58394,0.84284 0.19595,0.27979 0.39273,0.55791 0.59014,0.83406 0.19742,0.27615 0.39547,0.55024 0.59273,0.82114 0.19727,0.2709 0.39415,0.53847 0.58963,0.80253 0.19549,0.26406 0.38928,0.52419 0.58136,0.7798 0.19208,0.25562 0.38243,0.50685 0.56948,0.75241 0.18704,0.24557 0.37099,0.48594 0.55138,0.71985 0.1804,0.23392 0.35705,0.46147 0.52917,0.68213 0.34423,0.44132 0.67014,0.85431 0.97152,1.233 0.30138,0.37869 0.57819,0.72305 0.82372,1.0263 0.24552,0.30324 0.45997,0.56533 0.63665,0.78031 0.35336,0.42996 0.55604,0.67076 0.55604,0.67076 0,0 0.25723,-15.95302 -5.11597,-22.11751 z"
         inkscape:export-filename="D:\Project Computer\Project Coding Zakwan\BELAJAR WEB PROGRAMING\PORTFOLIO\img\zakwan.png"
         inkscape:export-xdpi="96"
         inkscape:export-ydpi="96" />
      <path
         id="path958"
         style="fill:#6e555d;fill-opacity:1;stroke:none;stroke-width:0.252825px;stroke-linecap:butt;stroke-linejoin:miter;stroke-opacity:1"
         d="m 88.6932,185.75217 c -0.17022,0.11033 -0.34349,0.22119 -0.55449,0.33745 -0.27236,0.1501 -0.57755,0.30483 -0.9126,0.46405 -0.33506,0.15925 -0.70012,0.32287 -1.09193,0.49041 -0.78362,0.33509 -1.67488,0.6859 -2.64996,1.04904 -0.97509,0.36314 -2.03418,0.73859 -3.1533,1.12292 -1.11912,0.38436 -2.29829,0.77748 -3.514,1.17615 -1.21571,0.3987 -2.46773,0.80309 -3.73259,1.20926 -2.52972,0.81227 -5.11028,1.63245 -7.55199,2.43342 -0.61043,0.20026 -1.19582,0.41058 -1.75752,0.62995 -0.56169,0.21936 -1.09957,0.44759 -1.61437,0.68315 -0.51479,0.23559 -1.00665,0.47876 -1.47639,0.72761 -0.46975,0.24884 -0.91758,0.50355 -1.34411,0.76274 -0.42653,0.25918 -0.83181,0.52302 -1.21698,0.78962 -0.38516,0.26662 -0.7499,0.5361 -1.09554,0.80719 -0.34564,0.27109 -0.67235,0.54382 -0.9803,0.81648 -0.30795,0.27268 -0.59761,0.5452 -0.86971,0.8165 -0.27211,0.27128 -0.52671,0.54121 -0.76482,0.8082 -0.2381,0.26702 -0.45964,0.53139 -0.66559,0.79118 -0.20595,0.2598 -0.39591,0.51515 -0.57154,0.76481 -0.17563,0.24966 -0.33653,0.4931 -0.48369,0.72966 -0.14716,0.23659 -0.281,0.4662 -0.40153,0.68678 -0.12052,0.22059 -0.22776,0.43241 -0.32349,0.63408 -0.19147,0.40333 -0.33538,0.76583 -0.43873,1.0759 -0.17624,0.52872 -0.88204,2.38059 -1.88981,4.98263 -1.00777,2.60205 -2.31751,5.95418 -3.70107,9.48367 -2.76712,7.05895 -5.83008,14.82696 -7.36596,18.72031 H 210 c -0.45281,-1.10533 -0.97256,-2.36236 -1.54461,-3.72587 -0.57206,-1.3635 -1.19631,-2.83331 -1.85828,-4.36512 -0.66196,-1.53178 -1.36157,-3.12542 -2.08412,-4.73562 -0.72252,-1.61022 -1.4683,-3.23712 -2.22208,-4.83589 -0.75377,-1.59875 -1.5155,-3.16947 -2.27118,-4.66688 -0.37782,-0.74872 -0.75425,-1.47889 -1.12707,-2.18541 -0.3728,-0.70651 -0.74226,-1.38914 -1.10638,-2.04224 -0.36412,-0.65312 -0.72311,-1.27706 -1.07487,-1.86552 -0.35174,-0.58846 -0.69625,-1.1416 -1.03198,-1.65418 -0.33571,-0.51255 -0.6622,-0.98427 -0.97822,-1.40972 -0.31605,-0.42545 -0.62151,-0.80463 -0.91416,-1.13173 -0.19413,-0.21696 -0.41421,-0.43842 -0.65837,-0.66352 -0.24415,-0.22511 -0.51247,-0.45392 -0.80306,-0.68625 -0.29056,-0.23233 -0.60349,-0.46779 -0.93689,-0.70641 -0.3334,-0.23863 -0.68725,-0.48051 -1.05987,-0.72451 -0.37264,-0.244 -0.76377,-0.49051 -1.17202,-0.73898 -0.40825,-0.24845 -0.83354,-0.49888 -1.27384,-0.75086 -0.88056,-0.50396 -1.82152,-1.01399 -2.8086,-1.52652 -0.98708,-0.51252 -2.02028,-1.02727 -3.0851,-1.54098 -1.06479,-0.51372 -2.16098,-1.02627 -3.27472,-1.53377 -1.11374,-0.50749 -2.24474,-1.00991 -3.37861,-1.50378 -1.13387,-0.49387 -2.27096,-0.97923 -3.39617,-1.45212 -2.25044,-0.94575 -4.45476,-1.84237 -6.4978,-2.65977 -2.04304,-0.81741 -3.9246,-1.55549 -5.52989,-2.18541 -1.6053,-0.62989 -2.9344,-1.15152 -3.8716,-1.53479 -0.4686,-0.19164 -0.83922,-0.34878 -1.09761,-0.46765 -0.25838,-0.11891 -0.40437,-0.19947 -0.42375,-0.23823 -3.35897,11.57552 -3.77238,8.47492 -7.18302,15.29622 -3.41065,6.82127 -22.32421,18.70689 -24.28792,19.22362 -1.9637,0.51678 -12.09228,0.82682 -18.39681,-1.75699 -6.30452,-2.58382 -10.542,-9.92188 -14.57276,-16.12305 -4.03076,-6.20117 -1.37872,-18.09657 -1.37872,-18.09657 z"
         inkscape:export-filename="D:\Project Computer\Project Coding Zakwan\BELAJAR WEB PROGRAMING\PORTFOLIO\img\zakwan.png"
         inkscape:export-xdpi="96"
         inkscape:export-ydpi="96" />
      <path
         id="path960"
         style="fill:#d6bd68;fill-opacity:1;stroke:none;stroke-width:0.252825px;stroke-linecap:butt;stroke-linejoin:miter;stroke-opacity:1"
         d="m 96.41262,177.53511 c -0.0435,0.0232 -0.083,0.0357 -0.12815,0.0631 -0.13485,0.0819 -0.27619,0.18191 -0.42375,0.29765 -0.14756,0.11574 -0.30114,0.24729 -0.4594,0.39223 -0.15826,0.14493 -0.32141,0.3034 -0.48835,0.47283 -0.16693,0.16944 -0.33747,0.34974 -0.51108,0.53899 -0.3472,0.37849 -0.7059,0.79207 -1.06763,1.22163 -0.72347,0.85912 -1.45986,1.7829 -2.14457,2.62104 -0.34236,0.41905 -0.67186,0.81658 -0.9803,1.17409 -0.30845,0.35748 -0.59583,0.67487 -0.85422,0.93326 -0.12919,0.1292 -0.297,0.26406 -0.50074,0.4041 -0.0459,0.0316 -0.11173,0.0661 -0.16123,0.0982 l 0.007,0.005 c 0,0 -0.0413,0.1861 -0.10594,0.52347 -0.0323,0.1687 -0.0705,0.37481 -0.11214,0.61497 -0.0416,0.24011 -0.0869,0.51398 -0.13332,0.81699 -0.0464,0.30302 -0.0939,0.63539 -0.14056,0.99271 -0.0466,0.3573 -0.0921,0.73957 -0.13436,1.14258 -0.0211,0.20148 -0.0418,0.40828 -0.061,0.6196 -0.0192,0.21127 -0.0371,0.42743 -0.0537,0.64749 -0.0167,0.22005 -0.0319,0.44407 -0.0455,0.6718 -0.0136,0.22773 -0.0257,0.45866 -0.0357,0.69297 -0.01,0.23432 -0.0181,0.47175 -0.0238,0.7116 -0.006,0.23982 -0.009,0.48228 -0.01,0.72657 -9.3e-4,0.24426 2.3e-4,0.49027 0.005,0.73792 0.004,0.24765 0.0119,0.49679 0.0222,0.74674 0.0103,0.24995 0.024,0.50072 0.0408,0.75189 0.0169,0.25117 0.037,0.50316 0.061,0.75449 0.0239,0.2513 0.0516,0.50199 0.0832,0.75239 0.0316,0.2504 0.0667,0.50038 0.10645,0.7488 0.0398,0.24839 0.0843,0.49519 0.13281,0.74051 0.0485,0.24535 0.10126,0.48901 0.15916,0.7302 0.0579,0.2412 0.1208,0.48025 0.18862,0.71623 0.0678,0.23598 0.1408,0.46897 0.21911,0.69866 0.0392,0.11485 0.0796,0.22905 0.12144,0.3421 0.0419,0.11306 0.085,0.22474 0.12971,0.33589 0.0447,0.11118 0.0909,0.22162 0.13849,0.33073 0.0476,0.10912 0.0968,0.21709 0.14728,0.32401 0.0505,0.10695 0.10255,0.21267 0.15606,0.31732 0.0535,0.10461 0.10825,0.20838 0.16485,0.31056 0.0566,0.10219 0.11491,0.20323 0.17467,0.30282 0.0598,0.0996 0.12099,0.19767 0.18396,0.29456 0.50385,0.77515 1.01104,1.56813 1.52498,2.36731 0.25696,0.39957 0.51532,0.8007 0.77618,1.20197 0.26085,0.4013 0.52396,0.80243 0.78961,1.20253 0.26565,0.40008 0.53429,0.79923 0.80564,1.19526 0.27135,0.39603 0.54576,0.78914 0.82372,1.17824 0.13898,0.19452 0.27881,0.38804 0.41961,0.58031 0.14081,0.19227 0.28256,0.38346 0.4253,0.57309 0.14274,0.18965 0.28619,0.37766 0.43098,0.5643 0.14479,0.18667 0.29074,0.37174 0.4377,0.55502 0.14695,0.1833 0.29518,0.36457 0.44442,0.54414 0.14923,0.1796 0.29951,0.35729 0.45113,0.53279 0.15163,0.1755 0.30424,0.3493 0.45837,0.52038 0.15413,0.17108 0.3099,0.33965 0.46664,0.50591 0.15674,0.16629 0.3144,0.32981 0.47387,0.49094 0.15948,0.16113 0.32086,0.3198 0.48318,0.47543 0.16232,0.1556 0.32564,0.30861 0.49092,0.45836 0.16528,0.14976 0.3324,0.29623 0.50075,0.43977 0.16835,0.14351 0.33799,0.28371 0.50953,0.42063 0.17154,0.13695 0.34503,0.27051 0.51986,0.4005 0.17484,0.12999 0.35092,0.25662 0.52917,0.37931 0.17825,0.12268 0.35824,0.24156 0.54002,0.35658 0.18177,0.11498 0.36545,0.22632 0.55087,0.33329 0.18541,0.107 0.37255,0.20939 0.56172,0.308 0.18917,0.0986 0.38057,0.19333 0.57361,0.28319 0.19304,0.0899 0.38796,0.17505 0.58498,0.2558 0.19701,0.0808 0.39791,0.1584 0.60203,0.23357 0.20412,0.0752 0.41169,0.1478 0.62218,0.21757 0.21049,0.0698 0.42363,0.137 0.63976,0.20153 0.21613,0.0645 0.43525,0.12658 0.65629,0.18603 0.0481,0.013 0.0974,0.0245 0.14572,0.0372 -3.03339,-3.62085 -7.3492,-8.84243 -8.17107,-10.48618 -1.1693,-2.3386 -4.89611,-14.25093 -4.96921,-19.58589 -0.0541,-3.95115 1.44903,-10.23429 2.23552,-13.24517 z"
         inkscape:export-filename="D:\Project Computer\Project Coding Zakwan\BELAJAR WEB PROGRAMING\PORTFOLIO\img\zakwan.png"
         inkscape:export-xdpi="96"
         inkscape:export-ydpi="96" />
      <path
         id="path962"
         style="fill:#b69a51;fill-opacity:1;stroke:none;stroke-width:0.252825px;stroke-linecap:butt;stroke-linejoin:miter;stroke-opacity:1"
         d="m 97.00329,177.34339 c -0.0107,0 -0.0216,3e-4 -0.0326,0.001 -0.011,7.4e-4 -0.0223,0.002 -0.0336,0.003 -0.0113,0.001 -0.0226,0.004 -0.0341,0.006 -0.0115,0.002 -0.0229,0.005 -0.0346,0.007 -0.0118,0.003 -0.0237,0.005 -0.0357,0.009 -0.012,0.003 -0.024,0.007 -0.0362,0.0109 -0.0244,0.008 -0.0493,0.0162 -0.0744,0.0258 -0.0251,0.01 -0.0507,0.0203 -0.0765,0.0315 -0.0258,0.0112 -0.0518,0.0231 -0.078,0.0357 -0.0263,0.0126 -0.0524,0.0257 -0.0791,0.0393 -0.0266,0.0136 -0.0537,0.0275 -0.0806,0.0419 -0.0972,0.37223 -0.20483,0.79198 -0.31936,1.25264 -0.0581,0.23383 -0.11784,0.47763 -0.1788,0.73018 -0.0609,0.25256 -0.12336,0.51384 -0.18603,0.78238 -0.0627,0.26855 -0.12587,0.544 -0.18914,0.8258 -0.0633,0.28179 -0.12637,0.56965 -0.18913,0.86196 -0.0207,0.0965 -0.0409,0.19609 -0.0615,0.29352 0.003,-0.001 3.94192,-1.70158 5.28495,-1.39165 0,0 1.05483,-2.62362 0.62012,-3.56567 z"
         inkscape:export-filename="D:\Project Computer\Project Coding Zakwan\BELAJAR WEB PROGRAMING\PORTFOLIO\img\zakwan.png"
         inkscape:export-xdpi="96"
         inkscape:export-ydpi="96" />
      <path
         id="path964"
         style="fill:#c7a84c;fill-opacity:1;stroke:none;stroke-width:0.252825px;stroke-linecap:butt;stroke-linejoin:miter;stroke-opacity:1"
         d="m 154.51915,187.2136 c -0.0775,-0.15505 -0.16497,-0.30017 -0.25218,-0.43098 -0.0872,-0.13081 -0.17415,-0.24728 -0.25166,-0.34417 -0.15503,-0.19379 -0.2713,-0.31007 -0.2713,-0.31007 0,0 -0.0567,-0.0119 -0.15917,-0.0424 -0.10244,-0.0305 -0.25038,-0.0795 -0.43408,-0.15298 -0.18369,-0.0735 -0.40272,-0.17177 -0.64647,-0.30075 -0.12187,-0.0645 -0.25001,-0.13685 -0.38292,-0.21757 -0.13291,-0.0807 -0.27108,-0.16968 -0.41238,-0.26818 -0.1413,-0.0985 -0.28601,-0.20617 -0.43305,-0.32401 -0.14704,-0.11787 -0.29635,-0.24569 -0.44648,-0.38449 -0.15014,-0.13878 -0.30108,-0.28882 -0.45165,-0.45009 -0.15058,-0.16126 -0.30071,-0.33403 -0.44907,-0.51935 -0.14837,-0.18531 -0.29471,-0.38285 -0.43822,-0.59377 -0.14351,-0.21091 -0.28413,-0.43524 -0.42013,-0.67334 -0.136,-0.23809 -0.26741,-0.49022 -0.39326,-0.75706 -0.12584,-0.26684 -0.24611,-0.54828 -0.35915,-0.84542 -0.0565,-0.14857 -0.11689,-0.29018 -0.18086,-0.42478 -0.064,-0.13461 -0.13174,-0.2622 -0.20258,-0.38344 -0.0708,-0.12125 -0.14458,-0.2362 -0.22169,-0.34469 -0.0771,-0.10848 -0.15751,-0.21062 -0.24029,-0.30695 -0.0828,-0.0963 -0.16794,-0.18653 -0.2558,-0.2713 -0.0879,-0.0848 -0.17845,-0.1639 -0.27079,-0.23772 -0.0923,-0.0738 -0.18644,-0.14221 -0.28267,-0.20567 -0.0962,-0.0635 -0.19452,-0.12199 -0.29404,-0.1757 -0.19904,-0.10742 -0.40424,-0.19619 -0.61288,-0.2682 -0.20864,-0.072 -0.42059,-0.12756 -0.63407,-0.16898 -0.21348,-0.0414 -0.42827,-0.0686 -0.64182,-0.0842 -0.21355,-0.0156 -0.42623,-0.0198 -0.6351,-0.0145 -0.20887,0.005 -0.41398,0.0203 -0.6134,0.0419 -0.19943,0.0215 -0.39304,0.0498 -0.57826,0.0827 -0.18522,0.0329 -0.36189,0.0701 -0.52813,0.10955 -0.16625,0.0394 -0.32205,0.0808 -0.46457,0.12196 -0.28505,0.0823 -0.51798,0.16337 -0.67955,0.22376 -0.16157,0.0604 -0.25167,0.10025 -0.25167,0.10025 -0.15358,1.62952 1.25781,2.64531 1.25781,2.64531 7.07967,-1.16271 3.93133,8.28018 -0.16123,15.36909 -4.09151,7.08707 -19.67858,25.47056 -19.68665,25.48011 0.15726,-0.0195 0.31804,-0.0388 0.44751,-0.0599 0.0918,-0.015 0.17627,-0.0309 0.25322,-0.0465 0.077,-0.0157 0.14637,-0.0314 0.20774,-0.0475 0.0614,-0.0161 0.13906,-0.0433 0.23254,-0.0811 0.0935,-0.0379 0.20298,-0.0867 0.3266,-0.14521 0.12361,-0.0585 0.26164,-0.12692 0.41341,-0.20515 0.15176,-0.0783 0.31712,-0.16611 0.49506,-0.26305 0.17794,-0.0969 0.36838,-0.20318 0.5705,-0.31779 0.20214,-0.11465 0.41593,-0.23765 0.64028,-0.36899 0.22434,-0.13131 0.45926,-0.27104 0.70383,-0.41807 0.24457,-0.147 0.49889,-0.30131 0.76171,-0.46302 0.52565,-0.32337 1.08549,-0.67501 1.67225,-1.05108 0.29338,-0.18804 0.59348,-0.38217 0.89917,-0.58188 0.30569,-0.19973 0.61726,-0.40507 0.93328,-0.61547 0.31601,-0.2104 0.63682,-0.4259 0.96118,-0.64595 0.32436,-0.22006 0.65216,-0.44464 0.98288,-0.67334 0.33073,-0.22873 0.66432,-0.46178 0.99942,-0.69816 0.33511,-0.23638 0.67173,-0.4763 1.00925,-0.71935 0.33751,-0.24302 0.67595,-0.48924 1.01389,-0.73792 0.33793,-0.24871 0.67545,-0.50009 1.01182,-0.75345 0.33638,-0.25334 0.67124,-0.50835 1.00408,-0.76531 0.33283,-0.25702 0.66331,-0.51604 0.99063,-0.77568 0.32732,-0.25964 0.6517,-0.52007 0.97152,-0.78134 0.31982,-0.2613 0.63534,-0.52306 0.94568,-0.78497 0.31034,-0.26193 0.61528,-0.52392 0.91415,-0.78549 0.29888,-0.26157 0.59152,-0.52269 0.87695,-0.78288 0.28543,-0.26022 0.56354,-0.5199 0.83354,-0.77774 0.27001,-0.25784 0.53185,-0.51398 0.78445,-0.76843 0.25261,-0.25445 0.49645,-0.50697 0.72967,-0.75705 0.11661,-0.12504 0.23019,-0.24935 0.34159,-0.37312 0.11139,-0.12374 0.22015,-0.24712 0.32607,-0.36949 0.10593,-0.12234 0.20933,-0.244 0.30954,-0.36483 0.10022,-0.12081 0.19721,-0.24051 0.29146,-0.35965 0.0942,-0.11917 0.18584,-0.23765 0.27389,-0.35502 0.088,-0.11739 0.17265,-0.23386 0.25424,-0.34935 0.0816,-0.11547 0.16024,-0.22969 0.23513,-0.34312 0.0749,-0.11345 0.14601,-0.22616 0.21394,-0.33745 0.0679,-0.11128 0.13253,-0.22121 0.19327,-0.33022 0.0607,-0.10898 0.11776,-0.21691 0.17105,-0.32348 0.10658,-0.21318 0.21018,-0.4168 0.31109,-0.61135 0.10091,-0.19452 0.19896,-0.38018 0.29456,-0.55758 0.0956,-0.1774 0.18891,-0.34618 0.27957,-0.50797 0.0907,-0.1618 0.17903,-0.31639 0.2651,-0.46406 0.17214,-0.29532 0.33546,-0.56401 0.49144,-0.81184 0.15598,-0.24784 0.30429,-0.47493 0.447,-0.68729 0.14272,-0.21238 0.27951,-0.41005 0.41186,-0.59893 0.13236,-0.18889 0.26061,-0.36878 0.38551,-0.54624 0.1249,-0.17742 0.24655,-0.35218 0.3669,-0.53019 0.12035,-0.17799 0.23891,-0.35928 0.3576,-0.54983 0.1187,-0.19056 0.23766,-0.39053 0.3576,-0.60566 0.06,-0.10756 0.12004,-0.21889 0.18087,-0.33486 0.0608,-0.11597 0.12244,-0.23638 0.18449,-0.36224 0.062,-0.12586 0.12447,-0.25704 0.1881,-0.39431 0.0636,-0.13724 0.12821,-0.2808 0.19378,-0.43098 0.0656,-0.15015 0.13211,-0.30673 0.19999,-0.47127 0.0679,-0.16457 0.13719,-0.33682 0.20774,-0.51729 0.0705,-0.18047 0.14243,-0.36954 0.21601,-0.5674 0.0736,-0.19788 0.14885,-0.40489 0.22583,-0.62166 0.077,-0.21678 0.15594,-0.44289 0.23667,-0.68006 0.0807,-0.2372 0.16319,-0.48506 0.24805,-0.74414 0.16971,-0.51819 0.34803,-1.08173 0.5364,-1.69657 0.18838,-0.61481 0.38693,-1.28105 0.59686,-2.0045 z"
         inkscape:export-filename="D:\Project Computer\Project Coding Zakwan\BELAJAR WEB PROGRAMING\PORTFOLIO\img\zakwan.png"
         inkscape:export-xdpi="96"
         inkscape:export-ydpi="96" />
    </g>
  </g>
</svg>
